<svg width="236" height="75" viewBox="0 0 236 75" fill="none" xmlns="http://www.w3.org/2000/svg">
<path d="M24.0361 53H20.1561V24.34H24.0361V53ZM30.2145 53V32.74H32.3545C32.8612 32.74 33.1745 32.9867 33.2945 33.48L33.5545 35.56C34.3012 34.64 35.1412 33.8867 36.0745 33.3C37.0079 32.7133 38.0879 32.42 39.3145 32.42C40.6745 32.42 41.7745 32.8 42.6145 33.56C43.4679 34.32 44.0812 35.3467 44.4545 36.64C44.7479 35.9067 45.1212 35.2733 45.5745 34.74C46.0412 34.2067 46.5612 33.7667 47.1345 33.42C47.7079 33.0733 48.3145 32.82 48.9545 32.66C49.6079 32.5 50.2679 32.42 50.9345 32.42C52.0012 32.42 52.9479 32.5933 53.7745 32.94C54.6145 33.2733 55.3212 33.7667 55.8945 34.42C56.4812 35.0733 56.9279 35.88 57.2345 36.84C57.5412 37.7867 57.6945 38.8733 57.6945 40.1V53H54.1145V40.1C54.1145 38.5133 53.7679 37.3133 53.0745 36.5C52.3812 35.6733 51.3812 35.26 50.0745 35.26C49.4879 35.26 48.9279 35.3667 48.3945 35.58C47.8745 35.78 47.4145 36.08 47.0145 36.48C46.6145 36.88 46.2945 37.3867 46.0545 38C45.8279 38.6 45.7145 39.3 45.7145 40.1V53H42.1345V40.1C42.1345 38.4733 41.8079 37.26 41.1545 36.46C40.5012 35.66 39.5479 35.26 38.2945 35.26C37.4145 35.26 36.6012 35.5 35.8545 35.98C35.1079 36.4467 34.4212 37.0867 33.7945 37.9V53H30.2145ZM63.1052 53V32.74H65.2452C65.7518 32.74 66.0652 32.9867 66.1852 33.48L66.4452 35.56C67.1918 34.64 68.0318 33.8867 68.9652 33.3C69.8985 32.7133 70.9785 32.42 72.2052 32.42C73.5652 32.42 74.6652 32.8 75.5052 33.56C76.3585 34.32 76.9718 35.3467 77.3452 36.64C77.6385 35.9067 78.0118 35.2733 78.4652 34.74C78.9318 34.2067 79.4518 33.7667 80.0252 33.42C80.5985 33.0733 81.2052 32.82 81.8452 32.66C82.4985 32.5 83.1585 32.42 83.8252 32.42C84.8918 32.42 85.8385 32.5933 86.6652 32.94C87.5052 33.2733 88.2118 33.7667 88.7852 34.42C89.3718 35.0733 89.8185 35.88 90.1252 36.84C90.4318 37.7867 90.5852 38.8733 90.5852 40.1V53H87.0052V40.1C87.0052 38.5133 86.6585 37.3133 85.9652 36.5C85.2718 35.6733 84.2718 35.26 82.9652 35.26C82.3785 35.26 81.8185 35.3667 81.2852 35.58C80.7652 35.78 80.3052 36.08 79.9052 36.48C79.5052 36.88 79.1852 37.3867 78.9452 38C78.7185 38.6 78.6052 39.3 78.6052 40.1V53H75.0252V40.1C75.0252 38.4733 74.6985 37.26 74.0452 36.46C73.3918 35.66 72.4385 35.26 71.1852 35.26C70.3052 35.26 69.4918 35.5 68.7452 35.98C67.9985 36.4467 67.3118 37.0867 66.6852 37.9V53H63.1052Z" fill="#8C0000"/>
<path d="M99.7558 32.74V53H96.1958V32.74H99.7558ZM100.516 26.38C100.516 26.7267 100.442 27.0533 100.296 27.36C100.162 27.6533 99.9758 27.92 99.7358 28.16C99.5091 28.3867 99.2358 28.5667 98.9158 28.7C98.6091 28.8333 98.2824 28.9 97.9358 28.9C97.5891 28.9 97.2624 28.8333 96.9558 28.7C96.6624 28.5667 96.4024 28.3867 96.1758 28.16C95.9491 27.92 95.7691 27.6533 95.6358 27.36C95.5024 27.0533 95.4358 26.7267 95.4358 26.38C95.4358 26.0333 95.5024 25.7067 95.6358 25.4C95.7691 25.08 95.9491 24.8067 96.1758 24.58C96.4024 24.34 96.6624 24.1533 96.9558 24.02C97.2624 23.8867 97.5891 23.82 97.9358 23.82C98.2824 23.82 98.6091 23.8867 98.9158 24.02C99.2358 24.1533 99.5091 24.34 99.7358 24.58C99.9758 24.8067 100.162 25.08 100.296 25.4C100.442 25.7067 100.516 26.0333 100.516 26.38ZM129.353 24.34V53H125.473V39.96H110.013V53H106.133V24.34H110.013V37.12H125.473V24.34H129.353ZM148.775 40.66C148.775 39.8333 148.655 39.08 148.415 38.4C148.188 37.7067 147.848 37.1133 147.395 36.62C146.955 36.1133 146.415 35.7267 145.775 35.46C145.135 35.18 144.408 35.04 143.595 35.04C141.888 35.04 140.535 35.54 139.535 36.54C138.548 37.5267 137.935 38.9 137.695 40.66H148.775ZM151.655 50.16C151.215 50.6933 150.688 51.16 150.075 51.56C149.461 51.9467 148.801 52.2667 148.095 52.52C147.401 52.7733 146.681 52.96 145.935 53.08C145.188 53.2133 144.448 53.28 143.715 53.28C142.315 53.28 141.021 53.0467 139.835 52.58C138.661 52.1 137.641 51.4067 136.775 50.5C135.921 49.58 135.255 48.4467 134.775 47.1C134.295 45.7533 134.055 44.2067 134.055 42.46C134.055 41.0467 134.268 39.7267 134.695 38.5C135.135 37.2733 135.761 36.2133 136.575 35.32C137.388 34.4133 138.381 33.7067 139.555 33.2C140.728 32.68 142.048 32.42 143.515 32.42C144.728 32.42 145.848 32.6267 146.875 33.04C147.915 33.44 148.808 34.0267 149.555 34.8C150.315 35.56 150.908 36.5067 151.335 37.64C151.761 38.76 151.975 40.04 151.975 41.48C151.975 42.04 151.915 42.4133 151.795 42.6C151.675 42.7867 151.448 42.88 151.115 42.88H137.575C137.615 44.16 137.788 45.2733 138.095 46.22C138.415 47.1667 138.855 47.96 139.415 48.6C139.975 49.2267 140.641 49.7 141.415 50.02C142.188 50.3267 143.055 50.48 144.015 50.48C144.908 50.48 145.675 50.38 146.315 50.18C146.968 49.9667 147.528 49.74 147.995 49.5C148.461 49.26 148.848 49.04 149.155 48.84C149.475 48.6267 149.748 48.52 149.975 48.52C150.268 48.52 150.495 48.6333 150.655 48.86L151.655 50.16ZM167.327 43.88C165.687 43.9333 164.287 44.0667 163.127 44.28C161.981 44.48 161.041 44.7467 160.307 45.08C159.587 45.4133 159.061 45.8067 158.727 46.26C158.407 46.7133 158.247 47.22 158.247 47.78C158.247 48.3133 158.334 48.7733 158.507 49.16C158.681 49.5467 158.914 49.8667 159.207 50.12C159.514 50.36 159.867 50.54 160.267 50.66C160.681 50.7667 161.121 50.82 161.587 50.82C162.214 50.82 162.787 50.76 163.307 50.64C163.827 50.5067 164.314 50.32 164.767 50.08C165.234 49.84 165.674 49.5533 166.087 49.22C166.514 48.8867 166.927 48.5067 167.327 48.08V43.88ZM155.827 35.6C156.947 34.52 158.154 33.7133 159.447 33.18C160.741 32.6467 162.174 32.38 163.747 32.38C164.881 32.38 165.887 32.5667 166.767 32.94C167.647 33.3133 168.387 33.8333 168.987 34.5C169.587 35.1667 170.041 35.9733 170.347 36.92C170.654 37.8667 170.807 38.9067 170.807 40.04V53H169.227C168.881 53 168.614 52.9467 168.427 52.84C168.241 52.72 168.094 52.4933 167.987 52.16L167.587 50.24C167.054 50.7333 166.534 51.1733 166.027 51.56C165.521 51.9333 164.987 52.2533 164.427 52.52C163.867 52.7733 163.267 52.9667 162.627 53.1C162.001 53.2467 161.301 53.32 160.527 53.32C159.741 53.32 159.001 53.2133 158.307 53C157.614 52.7733 157.007 52.44 156.487 52C155.981 51.56 155.574 51.0067 155.267 50.34C154.974 49.66 154.827 48.86 154.827 47.94C154.827 47.14 155.047 46.3733 155.487 45.64C155.927 44.8933 156.641 44.2333 157.627 43.66C158.614 43.0867 159.901 42.62 161.487 42.26C163.074 41.8867 165.021 41.6733 167.327 41.62V40.04C167.327 38.4667 166.987 37.28 166.307 36.48C165.627 35.6667 164.634 35.26 163.327 35.26C162.447 35.26 161.707 35.3733 161.107 35.6C160.521 35.8133 160.007 36.06 159.567 36.34C159.141 36.6067 158.767 36.8533 158.447 37.08C158.141 37.2933 157.834 37.4 157.527 37.4C157.287 37.4 157.081 37.34 156.907 37.22C156.734 37.0867 156.587 36.9267 156.467 36.74L155.827 35.6ZM179.91 23.54V53H176.35V23.54H179.91ZM191.903 53.32C190.303 53.32 189.07 52.8733 188.203 51.98C187.35 51.0867 186.923 49.8 186.923 48.12V35.72H184.483C184.27 35.72 184.09 35.66 183.943 35.54C183.797 35.4067 183.723 35.2067 183.723 34.94V33.52L187.043 33.1L187.863 26.84C187.903 26.64 187.99 26.48 188.123 26.36C188.27 26.2267 188.457 26.16 188.683 26.16H190.483V33.14H196.343V35.72H190.483V47.88C190.483 48.7333 190.69 49.3667 191.103 49.78C191.517 50.1933 192.05 50.4 192.703 50.4C193.077 50.4 193.397 50.3533 193.663 50.26C193.943 50.1533 194.183 50.04 194.383 49.92C194.583 49.8 194.75 49.6933 194.883 49.6C195.03 49.4933 195.157 49.44 195.263 49.44C195.45 49.44 195.617 49.5533 195.763 49.78L196.803 51.48C196.19 52.0533 195.45 52.5067 194.583 52.84C193.717 53.16 192.823 53.32 191.903 53.32ZM203.599 35.44C204.466 34.52 205.426 33.7867 206.479 33.24C207.533 32.6933 208.746 32.42 210.119 32.42C211.226 32.42 212.199 32.6067 213.039 32.98C213.893 33.34 214.599 33.86 215.159 34.54C215.733 35.2067 216.166 36.0133 216.459 36.96C216.753 37.9067 216.899 38.9533 216.899 40.1V53H213.319V40.1C213.319 38.5667 212.966 37.38 212.259 36.54C211.566 35.6867 210.506 35.26 209.079 35.26C208.026 35.26 207.039 35.5133 206.119 36.02C205.213 36.5267 204.373 37.2133 203.599 38.08V53H200.019V23.54H203.599V35.44Z" fill="#4B4B4B"/>
<circle cx="98" cy="26" r="5" fill="#8C0000" fill-opacity="0.2"/>
<ellipse cx="97.7727" cy="26.2273" rx="3.40909" ry="3.40909" fill="#8C0000"/>
</svg>
